<svg width="366" height="134" viewBox="0 0 366 134" fill="none" xmlns="http://www.w3.org/2000/svg">
<path d="M47.3425 0V6.37067C47.3425 8.62258 45.5165 10.4486 43.2646 10.4486H30.144V59.1446C30.144 62.1257 27.7288 64.541 24.7476 64.541H17.1985V10.4486H0V4.07793C0 1.82603 1.82603 0 4.07793 0H47.3483H47.3425Z" fill="#FFF2EF"/>
<path d="M95.986 15.1216C99.008 16.8193 101.365 19.3162 103.063 22.6124C104.76 25.9086 105.606 29.8698 105.606 34.4961V58.9929C105.606 62.0616 103.121 64.5527 100.046 64.5527H92.6606V36.258C92.6606 32.1917 91.6455 29.0589 89.6095 26.8712C87.5734 24.6834 84.8023 23.5867 81.2844 23.5867C77.7666 23.5867 74.8904 24.6834 72.8252 26.8712C70.76 29.0589 69.7274 32.1859 69.7274 36.258V58.9987C69.7274 62.0674 67.2421 64.5585 64.1676 64.5585H56.776V5.55975C56.776 2.4911 59.2613 0 62.3358 0H69.7274V19.6954C71.39 17.4785 73.6128 15.7342 76.3839 14.4682C79.1609 13.2081 82.2412 12.5722 85.6307 12.5722C89.5161 12.5722 92.964 13.4181 95.986 15.1158V15.1216Z" fill="#FFF2EF"/>
<path d="M117.671 24.9695C119.736 20.9616 122.542 17.8813 126.083 15.7227C129.63 13.5641 133.586 12.4849 137.967 12.4849C141.788 12.4849 145.131 13.2549 148.001 14.7951C150.866 16.3353 153.164 18.278 154.891 20.6174V17.4554C154.891 15.1685 156.746 13.3075 159.039 13.3075H167.93V60.3933C167.93 62.6802 166.075 64.5412 163.782 64.5412H154.891V57.0504C153.229 59.454 150.93 61.4434 148.001 63.0127C145.073 64.582 141.701 65.3696 137.874 65.3696C133.557 65.3696 129.63 64.2612 126.083 62.0384C122.536 59.8215 119.736 56.6887 117.671 52.6516C115.605 48.6145 114.573 43.9765 114.573 38.7376C114.573 33.4988 115.605 28.9658 117.671 24.9578V24.9695ZM153.042 30.8385C151.805 28.5866 150.142 26.8597 148.048 25.6579C145.954 24.4561 143.702 23.8552 141.298 23.8552C138.895 23.8552 136.678 24.4445 134.642 25.6113C132.606 26.7839 130.955 28.4932 129.694 30.7451C128.429 32.997 127.798 35.6631 127.798 38.7435C127.798 41.8238 128.429 44.5249 129.694 46.8352C130.955 49.1454 132.623 50.9189 134.688 52.1499C136.754 53.3867 138.959 53.9992 141.298 53.9992C143.638 53.9992 145.954 53.3984 148.048 52.1966C150.142 50.9948 151.805 49.2679 153.042 47.016C154.273 44.7641 154.891 42.0688 154.891 38.9243C154.891 35.7798 154.273 33.0845 153.042 30.8326V30.8385Z" fill="#FFF2EF"/>
<path d="M200.058 14.8884C202.742 13.3482 205.804 12.5781 209.258 12.5781V22.7467C209.258 24.6369 207.724 26.1712 205.834 26.1712C201.767 26.1712 198.699 27.128 196.633 29.0357C194.568 30.9492 193.536 34.2746 193.536 39.0234V61.1224C193.536 63.0126 192.001 64.547 190.111 64.547H180.584V16.7377C180.584 14.8475 182.119 13.3132 184.009 13.3132H193.536V21.2649C195.198 18.5521 197.374 16.4285 200.052 14.8825L200.058 14.8884Z" fill="#FFF2EF"/>
<path d="M217.723 24.9695C219.789 20.9616 222.595 17.8813 226.136 15.7227C229.683 13.5641 233.638 12.4849 238.02 12.4849C241.841 12.4849 245.184 13.2549 248.054 14.7951C250.918 16.3353 253.217 18.278 254.944 20.6174V17.4612C254.944 15.1685 256.799 13.3133 259.092 13.3133H267.983V60.3933C267.983 62.686 266.128 64.5412 263.835 64.5412H254.944V57.0504C253.281 59.454 250.983 61.4434 248.054 63.0127C245.125 64.582 241.753 65.3696 237.926 65.3696C233.609 65.3696 229.683 64.2612 226.136 62.0384C222.589 59.8215 219.789 56.6887 217.723 52.6516C215.658 48.6145 214.625 43.9765 214.625 38.7376C214.625 33.4988 215.658 28.9658 217.723 24.9578V24.9695ZM253.095 30.8385C251.858 28.5866 250.195 26.8597 248.101 25.6579C246.006 24.4561 243.754 23.8552 241.351 23.8552C238.947 23.8552 236.73 24.4445 234.694 25.6113C232.658 26.7839 231.007 28.4932 229.747 30.7451C228.481 32.997 227.851 35.6631 227.851 38.7435C227.851 41.8238 228.481 44.5249 229.747 46.8352C231.007 49.1454 232.676 50.9189 234.741 52.1499C236.806 53.3867 239.011 53.9992 241.351 53.9992C243.69 53.9992 246.006 53.3984 248.101 52.1966C250.195 50.9948 251.858 49.2679 253.095 47.016C254.326 44.7641 254.944 42.0688 254.944 38.9243C254.944 35.7798 254.326 33.0845 253.095 30.8326V30.8385Z" fill="#FFF2EF"/>
<path d="M359.476 18.3537C363.327 22.2041 365.258 27.5889 365.258 34.4904V60.4807C365.258 62.7267 363.438 64.5469 361.192 64.5469H352.312V36.2523C352.312 32.2443 351.297 29.1757 349.261 27.0521C347.225 24.9227 344.454 23.861 340.936 23.861C337.418 23.861 334.63 24.9227 332.564 27.0521C330.499 29.1757 329.467 32.2443 329.467 36.2523V60.4865C329.467 62.7326 327.646 64.5528 325.4 64.5528H316.521V36.2581C316.521 32.2502 315.506 29.1815 313.47 27.058C311.434 24.9286 308.663 23.8668 305.145 23.8668C301.627 23.8668 298.751 24.9286 296.686 27.058C294.62 29.1815 293.588 32.2502 293.588 36.2581V60.4923C293.588 62.7384 291.768 64.5586 289.521 64.5586H280.642V17.3794C280.642 15.1334 282.462 13.3132 284.708 13.3132H293.588V19.5088C295.25 17.3503 297.391 15.6584 300.017 14.4216C302.636 13.1907 305.518 12.5723 308.663 12.5723C312.671 12.5723 316.247 13.4182 319.391 15.1159C322.536 16.8135 324.969 19.2288 326.695 22.3733C328.358 19.4155 330.779 17.0411 333.953 15.2559C337.127 13.4707 340.563 12.5723 344.261 12.5723C350.55 12.5723 355.62 14.4975 359.471 18.3537H359.476Z" fill="#FFF2EF"/>
<path d="M231.923 130.908L224.333 133.621V112.799H205.268V130.908L197.678 133.621V112.799H191.814L194.527 107.485H197.683V81.1268L205.273 78.4141V107.485H224.339V81.1268L231.929 78.4141V130.914L231.923 130.908Z" fill="#F7A5A5"/>
<path d="M252.342 133.323C250.533 133.323 248.841 132.997 247.266 132.349C245.691 131.701 244.32 130.803 243.159 129.654C241.998 128.504 241.082 127.157 240.411 125.605C239.74 124.053 239.402 122.361 239.402 120.529C239.402 118.452 239.746 116.504 240.429 114.684C241.111 112.864 242.062 111.218 243.27 109.754C244.477 108.29 245.907 107.018 247.558 105.939C249.209 104.865 251 104.019 252.931 103.407L253.993 104.69C252.89 105.495 251.863 106.417 250.912 107.461C249.961 108.506 249.127 109.626 248.421 110.833C247.709 112.041 247.149 113.313 246.735 114.649C246.321 115.979 246.111 117.344 246.111 118.738C246.111 119.911 246.28 121.148 246.624 122.443C246.968 123.738 247.482 124.922 248.164 126.002C248.847 127.075 249.71 127.962 250.749 128.656C251.787 129.356 252.989 129.7 254.36 129.7C255.579 129.7 256.641 129.479 257.534 129.041C258.426 128.604 259.161 128.003 259.751 127.244C260.334 126.486 260.777 125.599 261.069 124.584C261.361 123.569 261.507 122.501 261.507 121.375C261.507 120.057 261.25 118.703 260.737 117.321C260.223 115.938 259.523 114.666 258.631 113.488C257.738 112.309 256.694 111.335 255.498 110.553C254.302 109.772 253.018 109.322 251.647 109.2C252.505 108.226 253.444 107.315 254.471 106.487C255.498 105.659 256.536 104.859 257.586 104.107C259.004 104.574 260.258 105.256 261.343 106.16C262.428 107.065 263.344 108.103 264.091 109.276C264.838 110.448 265.404 111.726 265.795 113.109C266.186 114.491 266.378 115.891 266.378 117.309C266.378 119.24 266.04 121.159 265.369 123.067C264.698 124.975 263.747 126.69 262.51 128.219C261.279 129.747 259.797 130.978 258.076 131.923C256.355 132.862 254.442 133.335 252.342 133.335V133.323Z" fill="#F7A5A5"/>
<path d="M312.904 128.195C312.344 129.391 311.685 130.307 310.926 130.942C310.168 131.578 309.444 132.039 308.762 132.337C307.957 132.681 307.134 132.873 306.306 132.92C305.209 132.92 304.311 132.751 303.61 132.407C302.916 132.063 302.356 131.613 301.942 131.053C301.528 130.493 301.242 129.857 301.079 129.146C300.921 128.44 300.839 127.716 300.839 126.981V111.62C300.839 111.229 300.769 110.879 300.618 110.576C300.472 110.273 300.273 110.092 300.034 110.045C299.789 109.999 299.498 110.121 299.153 110.413C298.809 110.704 298.442 111.229 298.051 111.988C297.391 113.942 296.791 115.996 296.254 118.149C295.787 120.004 295.367 122.104 294.988 124.438C294.609 126.771 294.393 129.175 294.346 131.642L287.602 133.988V111.626C287.602 111.235 287.526 110.885 287.38 110.582C287.235 110.279 287.03 110.098 286.774 110.051C286.517 110.004 286.219 110.127 285.875 110.419C285.531 110.71 285.181 111.235 284.813 111.994C284.078 114.047 283.442 116.183 282.906 118.411C282.661 119.362 282.427 120.377 282.212 121.456C281.996 122.536 281.803 123.638 281.64 124.776C281.476 125.914 281.354 127.063 281.255 128.224C281.156 129.385 281.121 130.528 281.144 131.654L274.476 133.999V109.363C274.476 108.779 274.342 108.313 274.073 107.968C273.805 107.624 273.455 107.449 273.029 107.437C272.597 107.426 272.13 107.577 271.617 107.898C271.104 108.219 270.602 108.733 270.112 109.438L269.126 108.336C269.686 107.163 270.339 106.253 271.086 105.606C271.833 104.958 272.556 104.485 273.268 104.194C274.073 103.85 274.907 103.657 275.759 103.61C276.833 103.61 277.719 103.78 278.419 104.124C279.114 104.468 279.668 104.911 280.07 105.46C280.473 106.008 280.753 106.638 280.916 107.35C281.074 108.056 281.156 108.779 281.156 109.514V117.25C281.593 115.051 282.258 113.108 283.139 111.422C284.02 109.736 284.942 108.313 285.91 107.152C286.873 105.991 287.824 105.11 288.751 104.515C289.679 103.914 290.426 103.616 290.986 103.616C291.692 103.616 292.269 103.733 292.707 103.966C293.144 104.2 293.489 104.55 293.734 105.01C293.979 105.477 294.142 106.043 294.229 106.714C294.317 107.385 294.358 108.172 294.358 109.077V117.25C294.825 115.051 295.49 113.108 296.353 111.422C297.222 109.736 298.144 108.313 299.124 107.152C300.098 105.991 301.055 105.11 301.983 104.515C302.91 103.914 303.657 103.616 304.217 103.616C305.612 103.616 306.522 104.077 306.947 104.993C307.373 105.909 307.589 107.274 307.589 109.083V127.191C307.589 127.78 307.723 128.241 307.992 128.585C308.26 128.93 308.604 129.105 309.019 129.116C309.433 129.128 309.894 128.976 310.395 128.655C310.897 128.34 311.393 127.827 311.877 127.115L312.904 128.212V128.195Z" fill="#F7A5A5"/>
<path d="M341.904 125.33C341.047 126.427 340.113 127.454 339.098 128.41C338.083 129.361 336.986 130.196 335.796 130.901C334.612 131.613 333.358 132.173 332.039 132.587C330.721 133.002 329.35 133.212 327.932 133.212C326.124 133.212 324.461 132.885 322.944 132.237C321.427 131.59 320.121 130.697 319.018 129.56C317.921 128.422 317.064 127.08 316.451 125.528C315.838 123.977 315.535 122.308 315.535 120.523C315.535 119.059 315.739 117.612 316.159 116.194C316.579 114.776 317.163 113.446 317.921 112.198C318.68 110.949 319.578 109.794 320.616 108.732C321.655 107.671 322.798 106.761 324.041 106.002C325.289 105.244 326.608 104.649 328.002 104.223C329.396 103.797 330.826 103.581 332.29 103.581C333.317 103.581 334.285 103.704 335.207 103.949C336.123 104.194 336.934 104.579 337.646 105.104C338.352 105.629 338.918 106.3 339.332 107.122C339.746 107.939 339.956 108.913 339.956 110.039C339.956 110.967 339.682 111.947 339.133 112.974C338.585 114 337.862 115.027 336.969 116.054C336.076 117.081 335.067 118.09 333.941 119.076C332.815 120.068 331.678 120.984 330.517 121.824C329.356 122.664 328.236 123.405 327.162 124.041C326.089 124.677 325.144 125.167 324.338 125.505C325.243 126.631 326.293 127.547 327.495 128.253C328.691 128.959 329.962 129.315 331.304 129.315C332.162 129.315 333.025 129.151 333.906 128.819C334.787 128.486 335.633 128.066 336.456 127.553C337.272 127.039 338.054 126.479 338.801 125.867C339.542 125.254 340.213 124.682 340.796 124.146L341.893 125.318L341.904 125.33ZM333.072 111.399C333.072 110.838 332.979 110.302 332.798 109.788C332.611 109.275 332.354 108.832 332.01 108.452C331.666 108.073 331.258 107.77 330.785 107.536C330.307 107.303 329.764 107.186 329.151 107.186C328.055 107.186 327.04 107.571 326.112 108.342C325.184 109.112 324.379 110.057 323.708 111.183C323.037 112.309 322.512 113.499 322.133 114.759C321.754 116.019 321.567 117.122 321.567 118.078C321.567 119.035 321.713 119.963 322.005 120.937C322.297 121.917 322.705 122.856 323.213 123.761C324.187 123.224 325.254 122.477 326.404 121.526C327.553 120.575 328.621 119.531 329.612 118.393C330.598 117.256 331.427 116.077 332.086 114.858C332.745 113.639 333.078 112.489 333.078 111.41L333.072 111.399Z" fill="#F7A5A5"/>
<path d="M363.315 122.361C363.315 123.878 363.035 125.296 362.469 126.614C361.909 127.933 361.145 129.082 360.176 130.062C359.208 131.042 358.059 131.812 356.729 132.372C355.398 132.932 353.957 133.218 352.423 133.218C351.764 133.218 351.046 133.154 350.276 133.031C349.506 132.909 348.742 132.728 347.983 132.483C347.225 132.238 346.513 131.935 345.837 131.567C345.166 131.2 344.606 130.762 344.168 130.249L348.497 124.601C348.789 125.068 349.15 125.576 349.576 126.124C350.008 126.672 350.48 127.18 351.005 127.647C351.531 128.113 352.091 128.498 352.691 128.802C353.287 129.105 353.893 129.263 354.506 129.263C355.218 129.263 355.883 129.14 356.501 128.895C357.125 128.65 357.668 128.3 358.135 127.851C358.601 127.402 358.963 126.865 359.237 126.258C359.506 125.646 359.64 124.975 359.64 124.24C359.64 123.265 359.301 122.367 358.63 121.544C357.96 120.728 357.166 119.934 356.25 119.164C355.334 118.394 354.383 117.601 353.392 116.784C352.4 115.967 351.601 115.069 350.988 114.089L347.178 119.66L345.749 118.598L350.148 112.513C349.804 111.807 349.535 111.061 349.343 110.279C349.15 109.497 349.051 108.715 349.051 107.934C349.051 107.275 349.162 106.574 349.384 105.845C349.605 105.116 349.92 104.439 350.34 103.827C350.755 103.214 351.262 102.707 351.863 102.304C352.464 101.901 353.152 101.697 353.934 101.697C354.716 101.697 355.334 101.931 355.859 102.391C356.384 102.858 356.647 103.506 356.647 104.334C356.647 104.772 356.571 105.215 356.425 105.653C356.279 106.09 356.093 106.534 355.877 106.971C355.655 107.409 355.41 107.835 355.142 108.237C354.873 108.64 354.617 109.013 354.372 109.357C354.955 110.186 355.591 110.909 356.279 111.522C356.962 112.134 357.639 112.706 358.292 113.243C358.951 113.779 359.587 114.316 360.2 114.853C360.812 115.39 361.343 116.002 361.798 116.685C362.247 117.367 362.615 118.167 362.895 119.065C363.175 119.963 363.321 121.072 363.321 122.367L363.315 122.361ZM354.99 104.988C354.99 104.643 354.873 104.387 354.64 104.218C354.407 104.048 354.144 103.961 353.852 103.961C353.438 103.961 353.147 104.101 352.972 104.381C352.797 104.661 352.715 104.976 352.715 105.314C352.715 105.804 352.791 106.283 352.954 106.744C353.112 107.21 353.316 107.648 353.561 108.062C353.66 107.893 353.788 107.671 353.946 107.403C354.103 107.135 354.261 106.849 354.424 106.539C354.588 106.23 354.716 105.939 354.827 105.659C354.938 105.378 354.99 105.151 354.99 104.982V104.988Z" fill="#F7A5A5"/>
</svg>
